<svg xmlns="http://www.w3.org/2000/svg" xmlns:xlink="http://www.w3.org/1999/xlink" width="1920" height="1080" viewBox="0 0 1920 1080">
  <defs>
    <clipPath id="clip-Web_1920_3">
      <rect width="1920" height="1080"/>
    </clipPath>
  </defs>
  <g id="Web_1920_3" data-name="Web 1920 – 3" clip-path="url(#clip-Web_1920_3)">
    <rect width="1920" height="1080" fill="#2c2662"/>
    <path id="Polygon_6" data-name="Polygon 6" d="M386,0,772,435H0Z" transform="translate(-87 673)" fill="#6e4b9f"/>
    <path id="Polygon_1" data-name="Polygon 1" d="M386,0,772,568H0Z" transform="translate(151 528)" fill="#4d3f7a"/>
    <path id="Polygon_5" data-name="Polygon 5" d="M130,0,260,216H0Z" transform="translate(1486 864)" fill="#6e4b9f"/>
    <path id="Polygon_2" data-name="Polygon 2" d="M461.5,0,923,472H0Z" transform="translate(772 608)" fill="#4d3f7a"/>
    <path id="Polygon_3" data-name="Polygon 3" d="M461.5,0,923,371H0Z" transform="translate(418 709)" fill="#3b2f61"/>
    <path id="Polygon_4" data-name="Polygon 4" d="M340.5,0,681,511H0Z" transform="translate(1580 569)" fill="#36285b"/>
    <path id="Polygon_7" data-name="Polygon 7" d="M461.5,0,923,264H0Z" transform="translate(0 844)" fill="#36285b"/>
    <g id="Group_4" data-name="Group 4" transform="translate(-417.637 27)">
      <ellipse id="Ellipse_1" data-name="Ellipse 1" cx="62" cy="62.5" rx="62" ry="62.5" transform="translate(1065.637 66)" fill="#cad3a8"/>
      <ellipse id="Ellipse_4" data-name="Ellipse 4" cx="12.01" cy="9.434" rx="12.01" ry="9.434" transform="translate(1111.377 119.459)" fill="#b3ac8f"/>
      <ellipse id="Ellipse_5" data-name="Ellipse 5" cx="11.623" cy="12.579" rx="11.623" ry="12.579" transform="translate(1146.245 138.327)" fill="#b3ac8f"/>
      <ellipse id="Ellipse_6" data-name="Ellipse 6" cx="6.199" cy="7.862" rx="6.199" ry="7.862" transform="translate(1098.205 163.484)" fill="#b3ac8f"/>
      <ellipse id="Ellipse_7" data-name="Ellipse 7" cx="6.199" cy="7.862" rx="6.199" ry="7.862" transform="translate(1169.491 102.164)" fill="#b3ac8f"/>
      <ellipse id="Ellipse_8" data-name="Ellipse 8" cx="11.623" cy="13.758" rx="11.623" ry="13.758" transform="translate(1074.959 128.893)" fill="#b3ac8f"/>
      <ellipse id="Ellipse_9" data-name="Ellipse 9" cx="11.623" cy="13.758" rx="11.623" ry="13.758" transform="translate(1135.398 74.648)" fill="#b3ac8f"/>
      <ellipse id="Ellipse_10" data-name="Ellipse 10" cx="6.586" cy="7.469" rx="6.586" ry="7.469" transform="translate(1098.205 79.365)" fill="#b3ac8f"/>
    </g>
    <ellipse id="Ellipse_11" data-name="Ellipse 11" cx="58.5" cy="59.5" rx="58.5" ry="59.5" transform="translate(685 71)" fill="#2c2662"/>
    <g id="Group_3" data-name="Group 3" transform="matrix(0.978, 0.208, -0.208, 0.978, 218.319, -266.865)">
      <ellipse id="Ellipse_3" data-name="Ellipse 3" cx="9.795" cy="8.871" rx="9.795" ry="8.871" transform="translate(1010.194 228.17)" fill="rgba(255,255,255,0.9)"/>
      <path id="Path_1" data-name="Path 1" d="M10.087-.026l7.8,36.631L-.1,37.176Z" transform="matrix(0.788, 0.616, -0.616, 0.788, 1037.374, 200.104)" fill="rgba(255,255,255,0.75)"/>
    </g>
    <g id="Group_1" data-name="Group 1" transform="matrix(0.978, 0.208, -0.208, 0.978, 96.34, -173.709)">
      <ellipse id="Ellipse_3-2" data-name="Ellipse 3" cx="5.016" cy="5.752" rx="5.016" ry="5.752" transform="translate(1010.194 219.456)" fill="rgba(255,255,255,0.9)"/>
      <path id="Path_1-2" data-name="Path 1" d="M5.072.431,11.891,22.8l-10.1-.848Z" transform="matrix(0.788, 0.616, -0.616, 0.788, 1024.459, 201.81)" fill="rgba(255,255,255,0.75)"/>
    </g>
    <g id="Group_2" data-name="Group 2" transform="matrix(0.978, 0.208, -0.208, 0.978, 68.123, -277.878)">
      <ellipse id="Ellipse_3-3" data-name="Ellipse 3" cx="4.955" cy="6.876" rx="4.955" ry="6.876" transform="translate(1010.194 221.908)" fill="rgba(255,255,255,0.9)"/>
      <path id="Path_1-3" data-name="Path 1" d="M6.059,1.266l9.528,25.675L4.728,24.976Z" transform="matrix(0.788, 0.616, -0.616, 0.788, 1023.977, 200.222)" fill="rgba(255,255,255,0.75)"/>
    </g>
    <path id="Polygon_10" data-name="Polygon 10" d="M13,0l2.925,9.688L26,12.5,15.925,15.313,13,25l-2.925-9.687L0,12.5,10.075,9.688Z" transform="translate(1590 107)" fill="rgba(255,255,255,0.46)"/>
    <path id="Polygon_12" data-name="Polygon 12" d="M20,0l4.5,15.113L40,19.5,24.5,23.888,20,39,15.5,23.888,0,19.5l15.5-4.387Z" transform="matrix(-0.53, 0.848, -0.848, -0.53, 358.135, 184.872)" fill="rgba(255,255,255,0.46)"/>
    <path id="Polygon_13" data-name="Polygon 13" d="M10,0l2.25,7.363L20,9.5l-7.75,2.137L10,19,7.75,11.637,0,9.5,7.75,7.362Z" transform="translate(151 351)" fill="rgba(255,255,255,0.46)"/>
    <path id="Polygon_9" data-name="Polygon 9" d="M27,0l6.075,17.438L54,22.5,33.075,27.563,27,45,20.925,27.563,0,22.5l20.925-5.062Z" transform="translate(496 308)" fill="rgba(255,255,255,0.46)"/>
    <path id="Polygon_13-2" data-name="Polygon 13" d="M20,0l4.5,15.113L40,19.5,24.5,23.888,20,39,15.5,23.888,0,19.5l15.5-4.387Z" transform="translate(565 139)" fill="rgba(255,255,255,0.46)"/>
    <path id="Polygon_8" data-name="Polygon 8" d="M20,0l4.5,11.238L40,14.5,24.5,17.763,20,29,15.5,17.763,0,14.5l15.5-3.262Z" transform="translate(925 259)" fill="rgba(255,255,255,0.46)"/>
    <path id="Polygon_9-2" data-name="Polygon 9" d="M13.5,0l3.038,12.4L27,16,16.538,19.6,13.5,32,10.463,19.6,0,16l10.463-3.6Z" transform="translate(627 506)" fill="rgba(255,255,255,0.46)"/>
    <path id="Polygon_11" data-name="Polygon 11" d="M15.5,0l3.488,8.525L31,11,18.988,13.475,15.5,22l-3.487-8.525L0,11,12.013,8.525Z" transform="translate(1213 427)" fill="rgba(255,255,255,0.46)"/>
    <path id="Polygon_12-2" data-name="Polygon 12" d="M20,0l4.5,15.113L40,19.5,24.5,23.888,20,39,15.5,23.888,0,19.5l15.5-4.387Z" transform="translate(1307 140)" fill="rgba(255,255,255,0.46)"/>
    <path id="Polygon_10-2" data-name="Polygon 10" d="M20,0l4.5,15.113L40,19.5,24.5,23.888,20,39,15.5,23.888,0,19.5l15.5-4.387Z" transform="translate(1378 314)" fill="rgba(255,255,255,0.46)"/>
    <path id="Polygon_11-2" data-name="Polygon 11" d="M20,0l4.5,15.113L40,19.5,24.5,23.888,20,39,15.5,23.888,0,19.5l15.5-4.387Z" transform="translate(823 331)" fill="rgba(255,255,255,0.46)"/>
    <path id="Polygon_8-2" data-name="Polygon 8" d="M20,0l4.5,11.238L40,14.5,24.5,17.763,20,29,15.5,17.763,0,14.5l15.5-3.262Z" transform="translate(1576 237)" fill="rgba(255,255,255,0.46)"/>
  </g>
</svg>
